<svg overflow="hidden" version="1.1" viewBox="0 0 468 216" xmlns="http://www.w3.org/2000/svg">
 <defs>
  <clipPath id="clip0">
   <path d="m134 467h468v216h-468z" clip-rule="evenodd" fill-rule="evenodd"/>
  </clipPath>
 </defs>
 <g transform="translate(-134 -467)" clip-path="url(#clip0)">
  <path d="m200 544.39c-22.427 0-40.608 18.181-40.608 40.608s18.181 40.608 40.608 40.608 40.608-18.181 40.608-40.608-18.181-40.608-40.608-40.608zm-4.714-25.392h8.459c1.168 0 2.115 0.947 2.115 2.115v7.371l5.648 0.569c2.847 0.583 5.616 1.377 8.29 2.366l2.688 1.229 3.549-6.149c0.584-1.011 1.878-1.358 2.889-0.774l7.327 4.23c1.011 0.584 1.358 1.878 0.774 2.889l-3.482 6.03 1.034 0.674c2.786 2.123 5.371 4.496 7.722 7.086l3.715 4.934 6.941-4.007c1.012-0.584 2.305-0.238 2.889 0.774l4.23 7.326c0.584 1.012 0.237 2.305-0.774 2.889l-6.947 4.011 0.965 1.945c1.277 3.322 2.254 6.795 2.895 10.383l0.332 3.764h7.34c1.168 0 2.115 0.947 2.115 2.115v8.46c0 1.168-0.947 2.115-2.115 2.115h-7.34l-0.332 3.763c-0.513 2.871-1.241 5.668-2.165 8.373l-1.949 4.552 5.915 3.415c1.011 0.584 1.358 1.877 0.774 2.889l-4.23 7.326c-0.584 1.012-1.877 1.358-2.889 0.774l-5.879-3.394-4.929 5.849c-1.955 2.001-4.055 3.859-6.284 5.558l-1.086 0.707 3.462 5.997c0.584 1.011 0.237 2.305-0.774 2.889l-7.327 4.23c-1.011 0.584-2.305 0.237-2.889-0.775l-3.534-6.122-2.631 1.203c-2.674 0.989-5.443 1.783-8.29 2.365l-5.648 0.57v7.371c0 1.168-0.947 2.115-2.115 2.115h-8.459c-1.168 0-2.115-0.947-2.115-2.115v-7.469l-4.68-0.472c-2.846-0.582-5.615-1.376-8.289-2.365l-3.34-1.527-3.722 6.446c-0.584 1.012-1.878 1.359-2.889 0.775l-7.327-4.23c-1.011-0.584-1.358-1.878-0.774-2.889l3.707-6.421-0.434-0.283c-2.786-2.123-5.371-4.496-7.722-7.086l-3.229-4.289-5.824 3.362c-1.012 0.584-2.305 0.238-2.889-0.774l-4.23-7.326c-0.584-1.012-0.238-2.305 0.774-2.889l5.701-3.292-1.322-2.664c-1.277-3.323-2.254-6.795-2.895-10.384l-0.332-3.763h-7.34c-1.168 0-2.115-0.947-2.115-2.115v-8.46c0-1.168 0.947-2.115 2.115-2.115h7.34l0.332-3.764c0.513-2.87 1.241-5.667 2.165-8.372l1.757-4.103-6.692-3.864c-1.012-0.584-1.358-1.877-0.774-2.889l4.23-7.326c0.584-1.012 1.877-1.358 2.889-0.774l6.53 3.77 5.247-6.225c1.955-2.001 4.055-3.86 6.284-5.558l0.382-0.249-3.727-6.455c-0.584-1.011-0.237-2.305 0.774-2.889l7.327-4.23c1.011-0.584 2.305-0.237 2.889 0.774l3.737 6.473 3.397-1.553c2.674-0.989 5.443-1.783 8.289-2.366l4.68-0.471v-7.469c0-1.168 0.947-2.115 2.115-2.115z" fill="#030027" fill-rule="evenodd"/>
  <g fill="none" fill-rule="evenodd" stroke="#030027" stroke-miterlimit="8" stroke-width="11">
   <path d="m162.5 511c0-20.711 16.789-37.5 37.5-37.5s37.5 16.789 37.5 37.5c0 0.156-1e-3 0.313-3e-3 0.469"/>
   <path d="m162.5 510.5v38.337"/>
   <path d="m237.5 508.5v38.337"/>
  </g>
  <text transform="translate(270.57 616)" fill="#DC9E82" font-family="Agency FB,Agency FB_MSFontService,sans-serif" font-size="80" font-stretch="condensed" font-weight="400">Test<tspan x="106.333" y="0" fill="#F2F3D9">And</tspan>Set</text>
 </g>
</svg>
