<?xml version="1.0" encoding="UTF-8" standalone="no"?>
<svg
   xmlns:dc="http://purl.org/dc/elements/1.1/"
   xmlns:cc="http://creativecommons.org/ns#"
   xmlns:rdf="http://www.w3.org/1999/02/22-rdf-syntax-ns#"
   xmlns:svg="http://www.w3.org/2000/svg"
   xmlns="http://www.w3.org/2000/svg"
   xmlns:sodipodi="http://sodipodi.sourceforge.net/DTD/sodipodi-0.dtd"
   xmlns:inkscape="http://www.inkscape.org/namespaces/inkscape"
   inkscape:version="1.0beta2 (unknown)"
   sodipodi:docname="logo2.svg"
   id="svg23"
   viewBox="0 0 468 216"
   version="1.1"
   overflow="hidden">
  <metadata
     id="metadata27">
    <rdf:RDF>
      <cc:Work
         rdf:about="">
        <dc:format>image/svg+xml</dc:format>
        <dc:type
           rdf:resource="http://purl.org/dc/dcmitype/StillImage" />
        <dc:title></dc:title>
      </cc:Work>
    </rdf:RDF>
  </metadata>
  <sodipodi:namedview
     inkscape:current-layer="svg23"
     inkscape:window-maximized="1"
     inkscape:window-y="27"
     inkscape:window-x="1920"
     inkscape:cy="108"
     inkscape:cx="234"
     inkscape:zoom="3.0787037"
     showgrid="false"
     id="namedview25"
     inkscape:window-height="1016"
     inkscape:window-width="1920"
     inkscape:pageshadow="2"
     inkscape:pageopacity="0"
     guidetolerance="10"
     gridtolerance="10"
     objecttolerance="10"
     borderopacity="1"
     inkscape:document-rotation="0"
     bordercolor="#666666"
     pagecolor="#ffffff" />
  <defs
     id="defs5">
    <clipPath
       id="clip0">
      <path
         id="path2"
         fill-rule="evenodd"
         clip-rule="evenodd"
         d="m134 467h468v216h-468z" />
    </clipPath>
  </defs>
  <g
     id="g898">
    <path
       inkscape:connector-curvature="0"
       id="path7"
       fill-rule="evenodd"
       fill="#030027"
       d="m 66,77.39 c -22.427,0 -40.608,18.181 -40.608,40.608 0,22.427 18.181,40.608 40.608,40.608 22.427,0 40.608,-18.181 40.608,-40.608 C 106.608,95.571 88.427,77.39 66,77.39 Z M 61.286,51.998 h 8.459 c 1.168,0 2.115,0.947 2.115,2.115 v 7.371 l 5.648,0.569 c 2.847,0.583 5.616,1.377 8.29,2.366 l 2.688,1.229 3.549,-6.149 c 0.584,-1.011 1.878,-1.358 2.889,-0.774 l 7.327,4.23 c 1.011,0.584 1.358,1.878 0.774,2.889 l -3.482,6.03 1.034,0.674 c 2.786,2.123 5.371,4.496 7.722,7.086 l 3.715,4.934 6.941,-4.007 c 1.012,-0.584 2.305,-0.238 2.889,0.774 l 4.23,7.326 c 0.584,1.012 0.237,2.305 -0.774,2.889 l -6.947,4.011 0.965,1.945 c 1.277,3.322 2.254,6.795 2.895,10.383 l 0.332,3.764 h 7.34 c 1.168,0 2.115,0.947 2.115,2.115 v 8.46 c 0,1.168 -0.947,2.115 -2.115,2.115 h -7.34 l -0.332,3.763 c -0.513,2.871 -1.241,5.668 -2.165,8.373 l -1.949,4.552 5.915,3.415 c 1.011,0.584 1.358,1.877 0.774,2.889 l -4.23,7.326 c -0.584,1.012 -1.877,1.358 -2.889,0.774 l -5.879,-3.394 -4.929,5.849 c -1.955,2.001 -4.055,3.859 -6.284,5.558 l -1.086,0.707 3.462,5.997 c 0.584,1.011 0.237,2.305 -0.774,2.889 l -7.327,4.23 c -1.011,0.584 -2.305,0.237 -2.889,-0.775 l -3.534,-6.122 -2.631,1.203 c -2.674,0.989 -5.443,1.783 -8.29,2.365 l -5.648,0.57 v 7.371 c 0,1.168 -0.947,2.115 -2.115,2.115 h -8.459 c -1.168,0 -2.115,-0.947 -2.115,-2.115 v -7.469 l -4.68,-0.472 c -2.846,-0.582 -5.615,-1.376 -8.289,-2.365 l -3.34,-1.527 -3.722,6.446 c -0.584,1.012 -1.878,1.359 -2.889,0.775 l -7.327,-4.23 c -1.011,-0.584 -1.358,-1.878 -0.774,-2.889 l 3.707,-6.421 -0.434,-0.283 c -2.786,-2.123 -5.371,-4.496 -7.722,-7.086 l -3.229,-4.289 -5.824,3.362 c -1.012,0.584 -2.305,0.238 -2.889,-0.774 l -4.23,-7.326 c -0.584,-1.012 -0.238,-2.305 0.774,-2.889 l 5.701,-3.292 -1.322,-2.664 c -1.277,-3.323 -2.254,-6.795 -2.895,-10.384 L 9.455,124.343 H 2.115 C 0.947,124.343 0,123.396 0,122.228 v -8.46 c 0,-1.168 0.947,-2.115 2.115,-2.115 h 7.34 l 0.332,-3.764 c 0.513,-2.87 1.241,-5.667 2.165,-8.372 L 13.709,95.414 7.017,91.55 C 6.005,90.966 5.659,89.673 6.243,88.661 l 4.23,-7.326 c 0.584,-1.012 1.877,-1.358 2.889,-0.774 l 6.53,3.77 5.247,-6.225 c 1.955,-2.001 4.055,-3.86 6.284,-5.558 l 0.382,-0.249 -3.727,-6.455 c -0.584,-1.011 -0.237,-2.305 0.774,-2.889 l 7.327,-4.23 c 1.011,-0.584 2.305,-0.237 2.889,0.774 l 3.737,6.473 3.397,-1.553 c 2.674,-0.989 5.443,-1.783 8.289,-2.366 l 4.68,-0.471 v -7.469 c 0,-1.168 0.947,-2.115 2.115,-2.115 z" />
    <path
       style="fill:none;fill-rule:evenodd;stroke:#030027;stroke-width:11;stroke-miterlimit:8"
       d="M 28.5,44 C 28.5,23.289 45.289,6.5 66,6.5 c 20.711,0 37.5,16.789 37.5,37.5 0,0.156 -0.001,0.313 -0.003,0.469"
       id="path9"
       inkscape:connector-curvature="0" />
    <path
       style="fill:none;fill-rule:evenodd;stroke:#030027;stroke-width:11;stroke-miterlimit:8"
       d="M 28.5,43.5 V 81.837"
       id="path11"
       inkscape:connector-curvature="0" />
    <path
       style="fill:none;fill-rule:evenodd;stroke:#030027;stroke-width:11;stroke-miterlimit:8"
       d="M 103.5,41.5 V 79.837"
       id="path13"
       inkscape:connector-curvature="0" />
    <g
       aria-label="TestAndSet"
       id="text19"
       style="font-weight:400;font-stretch:condensed;font-size:80px;font-family:'Agency FB', 'Agency FB_MSFontService', sans-serif;fill:#dc9e82">
      <path
         d="m 162.50751,92.671875 h -9.45313 V 149 h -5.42969 V 92.671875 h -9.53125 v -4.804688 h 24.41407 z"
         style="font-weight:400;font-stretch:condensed;font-size:80px;font-family:'Agency FB', 'Agency FB_MSFontService', sans-serif;fill:#dc9e82"
         id="path862" />
      <path
         d="m 189.49969,144.58594 q 0,4.41406 -4.375,4.41406 h -12.5 q -4.375,0 -4.375,-4.41406 v -29.17969 q 0,-4.41406 4.375,-4.41406 h 12.5 q 4.375,0 4.375,4.41406 v 13.67187 l -1.75781,1.83594 h -14.45312 v 13.75 h 11.17187 v -6.95312 h 5.03906 z m -5.03906,-17.8125 v -11.44531 h -11.17187 v 11.44531 z"
         style="font-weight:400;font-stretch:condensed;font-size:80px;font-family:'Agency FB', 'Agency FB_MSFontService', sans-serif;fill:#dc9e82"
         id="path864" />
      <path
         d="m 218.56219,144.58594 q 0,4.41406 -4.41406,4.41406 h -11.91406 q -4.41406,0 -4.41406,-4.41406 v -8.63282 h 5.11718 v 8.55469 h 10.50782 v -7.57812 l -13.59375,-11.13281 q -1.95313,-1.5625 -1.95313,-4.0625 v -6.32813 q 0,-4.41406 4.41406,-4.41406 h 11.75782 q 4.41406,0 4.41406,4.41406 v 7.57813 h -5.03906 v -7.5 h -10.50782 v 6.64062 l 13.71094,11.13281 q 1.91406,1.52344 1.91406,4.14063 z"
         style="font-weight:400;font-stretch:condensed;font-size:80px;font-family:'Agency FB', 'Agency FB_MSFontService', sans-serif;fill:#dc9e82"
         id="path866" />
      <path
         d="m 240.47626,149 h -7.38282 q -4.375,0 -4.375,-4.41406 V 115.5625 h -4.57031 v -4.57031 h 4.57031 V 99.15625 h 5.11719 v 11.83594 h 6.64063 v 4.57031 h -6.64063 v 28.86719 h 6.64063 z"
         style="font-weight:400;font-stretch:condensed;font-size:80px;font-family:'Agency FB', 'Agency FB_MSFontService', sans-serif;fill:#dc9e82"
         id="path868" />
      <path
         d="m 272.43425,149 h -5.39063 l -2.14843,-13.59375 H 252.74675 L 250.59831,149 h -5.23437 v -0.15625 l 10.89843,-61.132813 h 5.35157 z m -8.24219,-18.39844 -5.35156,-33.124998 -5.39063,33.124998 z"
         style="fill:#f2f3d9"
         id="path870" />
      <path
         d="m 300.98894,149 h -5.19532 v -33.35937 l -11.44531,0.3125 V 149 H 279.153 v -38.00781 h 5.19531 v 1.05469 q 3.04688,-0.39063 6.13281,-0.82032 3.75,-0.46875 6.17188,-0.46875 4.33594,0 4.33594,4.25782 z"
         style="fill:#f2f3d9"
         id="path872" />
      <path
         d="m 330.98894,149 h -5.15625 v -1.05469 q -8.35938,1.28906 -9.25782,1.28906 -3.32031,0 -5.35156,-2.22656 -2.03125,-2.26562 -2.03125,-5.625 v -22.22656 q 0,-3.51562 2.30469,-5.82031 2.30469,-2.34375 5.78125,-2.34375 h 8.55469 V 87.867187 h 5.15625 z m -5.15625,-4.72656 V 115.5625 h -7.1875 q -4.29688,0 -4.29688,4.41406 v 20.3125 q 0,4.375 4.29688,4.375 1.01562,0 7.1875,-0.39062 z"
         style="fill:#f2f3d9"
         id="path874" />
      <path
         d="m 363.99675,144.66406 q 0,1.91406 -1.21094,3.125 Q 361.61394,149 359.69987,149 h -15.39062 q -1.91406,0 -3.16406,-1.21094 -1.21094,-1.21094 -1.21094,-3.125 v -15.50781 h 5.42969 v 15.03906 h 13.20312 V 129.625 l -16.875,-20.39062 q -1.75781,-2.10938 -1.75781,-4.64844 V 92.203125 q 0,-1.914063 1.21094,-3.125 1.25,-1.210938 3.16406,-1.210938 h 15.39062 q 1.91407,0 3.08594,1.210938 1.21094,1.210937 1.21094,3.125 v 14.218755 h -5.42969 V 92.671875 H 345.36394 V 105.5625 l 16.95312,20.39063 q 1.67969,2.03125 1.67969,4.57031 z"
         style="font-weight:400;font-stretch:condensed;font-size:80px;font-family:'Agency FB', 'Agency FB_MSFontService', sans-serif;fill:#dc9e82"
         id="path876" />
      <path
         d="m 394.23112,144.58594 q 0,4.41406 -4.375,4.41406 h -12.5 q -4.375,0 -4.375,-4.41406 v -29.17969 q 0,-4.41406 4.375,-4.41406 h 12.5 q 4.375,0 4.375,4.41406 v 13.67187 l -1.75781,1.83594 h -14.45312 v 13.75 h 11.17187 v -6.95312 h 5.03906 z m -5.03906,-17.8125 v -11.44531 h -11.17187 v 11.44531 z"
         style="font-weight:400;font-stretch:condensed;font-size:80px;font-family:'Agency FB', 'Agency FB_MSFontService', sans-serif;fill:#dc9e82"
         id="path878" />
      <path
         d="m 416.49675,149 h -7.38281 q -4.375,0 -4.375,-4.41406 V 115.5625 h -4.57032 v -4.57031 h 4.57032 V 99.15625 h 5.11718 v 11.83594 h 6.64063 v 4.57031 h -6.64063 v 28.86719 h 6.64063 z"
         style="font-weight:400;font-stretch:condensed;font-size:80px;font-family:'Agency FB', 'Agency FB_MSFontService', sans-serif;fill:#dc9e82"
         id="path880" />
    </g>
  </g>
</svg>
